<mxfile host="app.diagrams.net" modified="2024-03-03T21:26:49.881Z" agent="Mozilla/5.0 (Windows NT 10.0; Win64; x64) AppleWebKit/537.36 (KHTML, like Gecko) Chrome/122.0.0.0 Safari/537.36" etag="GFpbbLxjazrGZdNjgw3T" version="24.0.1" type="device">
  <diagram name="Page-1" id="CLDjdEHAu1_Khd1Uo3I3">
    <mxGraphModel dx="1838" dy="962" grid="1" gridSize="10" guides="0" tooltips="1" connect="1" arrows="1" fold="1" page="1" pageScale="1" pageWidth="850" pageHeight="1100" math="0" shadow="0">
      <root>
        <mxCell id="0" />
        <mxCell id="1" parent="0" />
        <mxCell id="I3vFrrGUgCUFfB1d0GJX-1" value="" style="rounded=0;whiteSpace=wrap;html=1;" parent="1" vertex="1">
          <mxGeometry x="160" y="280" width="640" height="360" as="geometry" />
        </mxCell>
        <mxCell id="I3vFrrGUgCUFfB1d0GJX-2" value="" style="rounded=1;whiteSpace=wrap;html=1;fillColor=#f9f7ed;strokeColor=#36393d;" parent="1" vertex="1">
          <mxGeometry x="305" y="390" width="350" height="210" as="geometry" />
        </mxCell>
        <mxCell id="I3vFrrGUgCUFfB1d0GJX-3" value="&lt;font style=&quot;font-size: 18px;&quot;&gt;Security Reports&lt;/font&gt;" style="text;html=1;align=center;verticalAlign=middle;whiteSpace=wrap;rounded=0;" parent="1" vertex="1">
          <mxGeometry x="402.5" y="330" width="155" height="30" as="geometry" />
        </mxCell>
        <mxCell id="I3vFrrGUgCUFfB1d0GJX-5" value="" style="endArrow=none;html=1;rounded=0;entryX=1;entryY=0.25;entryDx=0;entryDy=0;exitX=0;exitY=0.25;exitDx=0;exitDy=0;" parent="1" source="I3vFrrGUgCUFfB1d0GJX-2" target="I3vFrrGUgCUFfB1d0GJX-2" edge="1">
          <mxGeometry width="50" height="50" relative="1" as="geometry">
            <mxPoint x="500" y="510" as="sourcePoint" />
            <mxPoint x="550" y="460" as="targetPoint" />
          </mxGeometry>
        </mxCell>
        <mxCell id="I3vFrrGUgCUFfB1d0GJX-6" value="" style="endArrow=none;html=1;rounded=0;exitX=0;exitY=0.5;exitDx=0;exitDy=0;entryX=1;entryY=0.5;entryDx=0;entryDy=0;" parent="1" source="I3vFrrGUgCUFfB1d0GJX-2" target="I3vFrrGUgCUFfB1d0GJX-2" edge="1">
          <mxGeometry width="50" height="50" relative="1" as="geometry">
            <mxPoint x="500" y="510" as="sourcePoint" />
            <mxPoint x="550" y="460" as="targetPoint" />
          </mxGeometry>
        </mxCell>
        <mxCell id="I3vFrrGUgCUFfB1d0GJX-7" value="" style="endArrow=none;html=1;rounded=0;exitX=0;exitY=0.75;exitDx=0;exitDy=0;entryX=1;entryY=0.75;entryDx=0;entryDy=0;" parent="1" source="I3vFrrGUgCUFfB1d0GJX-2" target="I3vFrrGUgCUFfB1d0GJX-2" edge="1">
          <mxGeometry width="50" height="50" relative="1" as="geometry">
            <mxPoint x="500" y="510" as="sourcePoint" />
            <mxPoint x="550" y="460" as="targetPoint" />
          </mxGeometry>
        </mxCell>
        <mxCell id="I3vFrrGUgCUFfB1d0GJX-8" value="Report 1/12/2024" style="text;html=1;align=center;verticalAlign=middle;whiteSpace=wrap;rounded=0;" parent="1" vertex="1">
          <mxGeometry x="325" y="400" width="100" height="30" as="geometry" />
        </mxCell>
        <mxCell id="I3vFrrGUgCUFfB1d0GJX-10" value="View" style="rounded=1;whiteSpace=wrap;html=1;fillColor=#dae8fc;strokeColor=#6c8ebf;" parent="1" vertex="1">
          <mxGeometry x="600" y="400" width="40" height="30" as="geometry" />
        </mxCell>
        <mxCell id="I3vFrrGUgCUFfB1d0GJX-33" style="edgeStyle=orthogonalEdgeStyle;rounded=0;orthogonalLoop=1;jettySize=auto;html=1;entryX=0.5;entryY=1;entryDx=0;entryDy=0;" parent="1" source="I3vFrrGUgCUFfB1d0GJX-12" target="I3vFrrGUgCUFfB1d0GJX-31" edge="1">
          <mxGeometry relative="1" as="geometry" />
        </mxCell>
        <mxCell id="I3vFrrGUgCUFfB1d0GJX-12" value="&lt;font style=&quot;font-size: 11px;&quot;&gt;Delete&lt;/font&gt;" style="rounded=1;whiteSpace=wrap;html=1;fillColor=#f8cecc;strokeColor=#b85450;" parent="1" vertex="1">
          <mxGeometry x="550" y="400" width="40" height="30" as="geometry" />
        </mxCell>
        <mxCell id="I3vFrrGUgCUFfB1d0GJX-14" value="Issues: 4" style="text;html=1;align=center;verticalAlign=middle;whiteSpace=wrap;rounded=0;" parent="1" vertex="1">
          <mxGeometry x="450" y="400" width="60" height="30" as="geometry" />
        </mxCell>
        <mxCell id="I3vFrrGUgCUFfB1d0GJX-15" value="Report 1/12/2024" style="text;html=1;align=center;verticalAlign=middle;whiteSpace=wrap;rounded=0;" parent="1" vertex="1">
          <mxGeometry x="322.5" y="450" width="100" height="30" as="geometry" />
        </mxCell>
        <mxCell id="I3vFrrGUgCUFfB1d0GJX-16" value="View" style="rounded=1;whiteSpace=wrap;html=1;fillColor=#dae8fc;strokeColor=#6c8ebf;" parent="1" vertex="1">
          <mxGeometry x="597.5" y="450" width="40" height="30" as="geometry" />
        </mxCell>
        <mxCell id="I3vFrrGUgCUFfB1d0GJX-17" value="&lt;font style=&quot;font-size: 11px;&quot;&gt;Delete&lt;/font&gt;" style="rounded=1;whiteSpace=wrap;html=1;fillColor=#f8cecc;strokeColor=#b85450;" parent="1" vertex="1">
          <mxGeometry x="547.5" y="450" width="40" height="30" as="geometry" />
        </mxCell>
        <mxCell id="I3vFrrGUgCUFfB1d0GJX-18" value="Issues: 4" style="text;html=1;align=center;verticalAlign=middle;whiteSpace=wrap;rounded=0;" parent="1" vertex="1">
          <mxGeometry x="447.5" y="450" width="60" height="30" as="geometry" />
        </mxCell>
        <mxCell id="I3vFrrGUgCUFfB1d0GJX-19" value="Report 1/12/2024" style="text;html=1;align=center;verticalAlign=middle;whiteSpace=wrap;rounded=0;" parent="1" vertex="1">
          <mxGeometry x="322.5" y="510" width="100" height="30" as="geometry" />
        </mxCell>
        <mxCell id="I3vFrrGUgCUFfB1d0GJX-20" value="View" style="rounded=1;whiteSpace=wrap;html=1;fillColor=#dae8fc;strokeColor=#6c8ebf;" parent="1" vertex="1">
          <mxGeometry x="597.5" y="510" width="40" height="30" as="geometry" />
        </mxCell>
        <mxCell id="I3vFrrGUgCUFfB1d0GJX-21" value="&lt;font style=&quot;font-size: 11px;&quot;&gt;Delete&lt;/font&gt;" style="rounded=1;whiteSpace=wrap;html=1;fillColor=#f8cecc;strokeColor=#b85450;" parent="1" vertex="1">
          <mxGeometry x="547.5" y="510" width="40" height="30" as="geometry" />
        </mxCell>
        <mxCell id="I3vFrrGUgCUFfB1d0GJX-22" value="Issues: 4" style="text;html=1;align=center;verticalAlign=middle;whiteSpace=wrap;rounded=0;" parent="1" vertex="1">
          <mxGeometry x="447.5" y="510" width="60" height="30" as="geometry" />
        </mxCell>
        <mxCell id="I3vFrrGUgCUFfB1d0GJX-27" value="Report 1/12/2024" style="text;html=1;align=center;verticalAlign=middle;whiteSpace=wrap;rounded=0;" parent="1" vertex="1">
          <mxGeometry x="325" y="560" width="100" height="30" as="geometry" />
        </mxCell>
        <mxCell id="I3vFrrGUgCUFfB1d0GJX-47" style="edgeStyle=orthogonalEdgeStyle;rounded=0;orthogonalLoop=1;jettySize=auto;html=1;entryX=0.5;entryY=0;entryDx=0;entryDy=0;" parent="1" source="I3vFrrGUgCUFfB1d0GJX-28" target="I3vFrrGUgCUFfB1d0GJX-44" edge="1">
          <mxGeometry relative="1" as="geometry" />
        </mxCell>
        <mxCell id="I3vFrrGUgCUFfB1d0GJX-28" value="View" style="rounded=1;whiteSpace=wrap;html=1;fillColor=#dae8fc;strokeColor=#6c8ebf;" parent="1" vertex="1">
          <mxGeometry x="600" y="560" width="40" height="30" as="geometry" />
        </mxCell>
        <mxCell id="I3vFrrGUgCUFfB1d0GJX-29" value="&lt;font style=&quot;font-size: 11px;&quot;&gt;Delete&lt;/font&gt;" style="rounded=1;whiteSpace=wrap;html=1;fillColor=#f8cecc;strokeColor=#b85450;" parent="1" vertex="1">
          <mxGeometry x="550" y="560" width="40" height="30" as="geometry" />
        </mxCell>
        <mxCell id="I3vFrrGUgCUFfB1d0GJX-30" value="Issues: 4" style="text;html=1;align=center;verticalAlign=middle;whiteSpace=wrap;rounded=0;" parent="1" vertex="1">
          <mxGeometry x="450" y="560" width="60" height="30" as="geometry" />
        </mxCell>
        <mxCell id="I3vFrrGUgCUFfB1d0GJX-31" value="" style="rounded=1;whiteSpace=wrap;html=1;" parent="1" vertex="1">
          <mxGeometry x="488.75" y="60" width="162.5" height="180" as="geometry" />
        </mxCell>
        <mxCell id="I3vFrrGUgCUFfB1d0GJX-32" value="Pop-up confirmation" style="text;html=1;align=center;verticalAlign=middle;whiteSpace=wrap;rounded=0;" parent="1" vertex="1">
          <mxGeometry x="540" y="30" width="60" height="30" as="geometry" />
        </mxCell>
        <mxCell id="I3vFrrGUgCUFfB1d0GJX-34" value="Are you sure you want to delete the report from 1/12/2020 9:16PM?" style="text;html=1;align=center;verticalAlign=middle;whiteSpace=wrap;rounded=0;" parent="1" vertex="1">
          <mxGeometry x="490" y="90" width="160" height="40" as="geometry" />
        </mxCell>
        <mxCell id="I3vFrrGUgCUFfB1d0GJX-35" value="&lt;font style=&quot;font-size: 7px;&quot;&gt;9:16 PM&lt;/font&gt;" style="text;html=1;align=center;verticalAlign=middle;whiteSpace=wrap;rounded=0;" parent="1" vertex="1">
          <mxGeometry x="422.5" y="405" width="30" height="20" as="geometry" />
        </mxCell>
        <mxCell id="I3vFrrGUgCUFfB1d0GJX-36" value="&lt;font style=&quot;font-size: 7px;&quot;&gt;9:16 PM&lt;/font&gt;" style="text;html=1;align=center;verticalAlign=middle;whiteSpace=wrap;rounded=0;" parent="1" vertex="1">
          <mxGeometry x="420" y="455" width="30" height="20" as="geometry" />
        </mxCell>
        <mxCell id="I3vFrrGUgCUFfB1d0GJX-37" value="&lt;font style=&quot;font-size: 7px;&quot;&gt;9:16 PM&lt;/font&gt;" style="text;html=1;align=center;verticalAlign=middle;whiteSpace=wrap;rounded=0;" parent="1" vertex="1">
          <mxGeometry x="420" y="515" width="30" height="20" as="geometry" />
        </mxCell>
        <mxCell id="I3vFrrGUgCUFfB1d0GJX-38" value="&lt;font style=&quot;font-size: 7px;&quot;&gt;9:16 PM&lt;/font&gt;" style="text;html=1;align=center;verticalAlign=middle;whiteSpace=wrap;rounded=0;" parent="1" vertex="1">
          <mxGeometry x="420" y="565" width="30" height="20" as="geometry" />
        </mxCell>
        <mxCell id="I3vFrrGUgCUFfB1d0GJX-44" value="" style="rounded=0;whiteSpace=wrap;html=1;" parent="1" vertex="1">
          <mxGeometry x="157.5" y="720" width="640" height="360" as="geometry" />
        </mxCell>
        <mxCell id="I3vFrrGUgCUFfB1d0GJX-46" value="&lt;font style=&quot;font-size: 18px;&quot;&gt;Security Report&lt;br&gt;1/12/2024 @ 9:16PM&lt;br&gt;&lt;/font&gt;" style="text;html=1;align=center;verticalAlign=middle;whiteSpace=wrap;rounded=0;" parent="1" vertex="1">
          <mxGeometry x="390" y="760" width="180" height="30" as="geometry" />
        </mxCell>
        <mxCell id="I3vFrrGUgCUFfB1d0GJX-48" value="Yes, continue." style="rounded=1;whiteSpace=wrap;html=1;fillColor=#f8cecc;strokeColor=#b85450;" parent="1" vertex="1">
          <mxGeometry x="510" y="140" width="120" height="30" as="geometry" />
        </mxCell>
        <mxCell id="I3vFrrGUgCUFfB1d0GJX-49" value="No, go back." style="rounded=1;whiteSpace=wrap;html=1;fillColor=#dae8fc;strokeColor=#6c8ebf;" parent="1" vertex="1">
          <mxGeometry x="510" y="180" width="120" height="30" as="geometry" />
        </mxCell>
        <mxCell id="I3vFrrGUgCUFfB1d0GJX-57" value="" style="rounded=1;whiteSpace=wrap;html=1;fillColor=#fad9d5;strokeColor=#ae4132;" parent="1" vertex="1">
          <mxGeometry x="302.5" y="810" width="117.5" height="60" as="geometry" />
        </mxCell>
        <mxCell id="I3vFrrGUgCUFfB1d0GJX-58" value="" style="rounded=1;whiteSpace=wrap;html=1;fillColor=#d5e8d4;strokeColor=#82b366;" parent="1" vertex="1">
          <mxGeometry x="418.75" y="810" width="117.5" height="60" as="geometry" />
        </mxCell>
        <mxCell id="I3vFrrGUgCUFfB1d0GJX-59" value="" style="rounded=1;whiteSpace=wrap;html=1;fillColor=#d0cee2;strokeColor=#56517e;" parent="1" vertex="1">
          <mxGeometry x="535" y="810" width="117.5" height="60" as="geometry" />
        </mxCell>
        <mxCell id="I3vFrrGUgCUFfB1d0GJX-45" value="" style="rounded=1;whiteSpace=wrap;html=1;arcSize=10;fillColor=#fad9d5;strokeColor=#ae4132;" parent="1" vertex="1">
          <mxGeometry x="302.5" y="840" width="350" height="200" as="geometry" />
        </mxCell>
        <mxCell id="I3vFrrGUgCUFfB1d0GJX-51" value="Resolved" style="text;html=1;align=center;verticalAlign=middle;whiteSpace=wrap;rounded=0;" parent="1" vertex="1">
          <mxGeometry x="447.5" y="810" width="60" height="30" as="geometry" />
        </mxCell>
        <mxCell id="I3vFrrGUgCUFfB1d0GJX-103" style="edgeStyle=orthogonalEdgeStyle;rounded=0;orthogonalLoop=1;jettySize=auto;html=1;exitX=1;exitY=0.5;exitDx=0;exitDy=0;entryX=0;entryY=0.5;entryDx=0;entryDy=0;" parent="1" source="I3vFrrGUgCUFfB1d0GJX-60" target="I3vFrrGUgCUFfB1d0GJX-83" edge="1">
          <mxGeometry relative="1" as="geometry" />
        </mxCell>
        <mxCell id="I3vFrrGUgCUFfB1d0GJX-60" value="Ignored" style="text;html=1;align=center;verticalAlign=middle;whiteSpace=wrap;rounded=0;" parent="1" vertex="1">
          <mxGeometry x="563.75" y="810" width="60" height="30" as="geometry" />
        </mxCell>
        <mxCell id="I3vFrrGUgCUFfB1d0GJX-61" value="Issues" style="text;html=1;align=center;verticalAlign=middle;whiteSpace=wrap;rounded=0;" parent="1" vertex="1">
          <mxGeometry x="330" y="810" width="60" height="30" as="geometry" />
        </mxCell>
        <mxCell id="I3vFrrGUgCUFfB1d0GJX-65" value="" style="rounded=0;whiteSpace=wrap;html=1;fillColor=#eeeeee;strokeColor=#36393d;" parent="1" vertex="1">
          <mxGeometry x="306.25" y="855" width="342.5" height="170" as="geometry" />
        </mxCell>
        <mxCell id="I3vFrrGUgCUFfB1d0GJX-67" value="" style="rounded=0;whiteSpace=wrap;html=1;fillColor=#1ba1e2;strokeColor=#006EAF;fontColor=#ffffff;" parent="1" vertex="1">
          <mxGeometry x="312.5" y="860" width="327.5" height="10" as="geometry" />
        </mxCell>
        <mxCell id="I3vFrrGUgCUFfB1d0GJX-68" value="&lt;div style=&quot;font-size: 11px;&quot;&gt;&lt;font style=&quot;font-size: 11px;&quot;&gt;Issue: Internal route detected.&lt;/font&gt;&lt;/div&gt;&lt;div style=&quot;font-size: 11px;&quot;&gt;&lt;font style=&quot;font-size: 11px;&quot;&gt;Severity: 1&lt;/font&gt;&lt;/div&gt;" style="text;html=1;align=left;verticalAlign=middle;whiteSpace=wrap;rounded=0;" parent="1" vertex="1">
          <mxGeometry x="312.5" y="870" width="177.5" height="60" as="geometry" />
        </mxCell>
        <mxCell id="I3vFrrGUgCUFfB1d0GJX-69" value="Resolve" style="rounded=1;whiteSpace=wrap;html=1;fillColor=#d5e8d4;strokeColor=#82b366;" parent="1" vertex="1">
          <mxGeometry x="542.5" y="880" width="50" height="20" as="geometry" />
        </mxCell>
        <mxCell id="I3vFrrGUgCUFfB1d0GJX-70" value="Ignore" style="rounded=1;whiteSpace=wrap;html=1;fillColor=#e1d5e7;strokeColor=#9673a6;" parent="1" vertex="1">
          <mxGeometry x="542.5" y="900" width="50" height="20" as="geometry" />
        </mxCell>
        <mxCell id="I3vFrrGUgCUFfB1d0GJX-77" value="View" style="rounded=1;whiteSpace=wrap;html=1;fillColor=#fad7ac;strokeColor=#b46504;" parent="1" vertex="1">
          <mxGeometry x="592.5" y="880" width="47.5" height="40" as="geometry" />
        </mxCell>
        <mxCell id="I3vFrrGUgCUFfB1d0GJX-78" value="" style="rounded=0;whiteSpace=wrap;html=1;fillColor=#fa6800;strokeColor=#C73500;fontColor=#000000;" parent="1" vertex="1">
          <mxGeometry x="310" y="930" width="327.5" height="10" as="geometry" />
        </mxCell>
        <mxCell id="I3vFrrGUgCUFfB1d0GJX-80" value="Resolve" style="rounded=1;whiteSpace=wrap;html=1;fillColor=#d5e8d4;strokeColor=#82b366;" parent="1" vertex="1">
          <mxGeometry x="540" y="950" width="50" height="20" as="geometry" />
        </mxCell>
        <mxCell id="I3vFrrGUgCUFfB1d0GJX-81" value="Ignore" style="rounded=1;whiteSpace=wrap;html=1;fillColor=#e1d5e7;strokeColor=#9673a6;" parent="1" vertex="1">
          <mxGeometry x="540" y="970" width="50" height="20" as="geometry" />
        </mxCell>
        <mxCell id="I3vFrrGUgCUFfB1d0GJX-139" style="edgeStyle=orthogonalEdgeStyle;rounded=0;orthogonalLoop=1;jettySize=auto;html=1;entryX=0.5;entryY=0;entryDx=0;entryDy=0;" parent="1" source="I3vFrrGUgCUFfB1d0GJX-82" target="I3vFrrGUgCUFfB1d0GJX-138" edge="1">
          <mxGeometry relative="1" as="geometry" />
        </mxCell>
        <mxCell id="I3vFrrGUgCUFfB1d0GJX-82" value="View" style="rounded=1;whiteSpace=wrap;html=1;fillColor=#fad7ac;strokeColor=#b46504;" parent="1" vertex="1">
          <mxGeometry x="590" y="950" width="47.5" height="40" as="geometry" />
        </mxCell>
        <mxCell id="I3vFrrGUgCUFfB1d0GJX-83" value="" style="rounded=0;whiteSpace=wrap;html=1;" parent="1" vertex="1">
          <mxGeometry x="880" y="720" width="640" height="360" as="geometry" />
        </mxCell>
        <mxCell id="I3vFrrGUgCUFfB1d0GJX-84" value="&lt;font style=&quot;font-size: 18px;&quot;&gt;Security Report&lt;br&gt;1/12/2024 @ 9:16PM&lt;br&gt;&lt;/font&gt;" style="text;html=1;align=center;verticalAlign=middle;whiteSpace=wrap;rounded=0;" parent="1" vertex="1">
          <mxGeometry x="1112.5" y="760" width="180" height="30" as="geometry" />
        </mxCell>
        <mxCell id="I3vFrrGUgCUFfB1d0GJX-85" value="" style="rounded=1;whiteSpace=wrap;html=1;fillColor=#fad9d5;strokeColor=#ae4132;" parent="1" vertex="1">
          <mxGeometry x="1025" y="810" width="117.5" height="60" as="geometry" />
        </mxCell>
        <mxCell id="I3vFrrGUgCUFfB1d0GJX-86" value="" style="rounded=1;whiteSpace=wrap;html=1;fillColor=#d5e8d4;strokeColor=#82b366;" parent="1" vertex="1">
          <mxGeometry x="1141.25" y="810" width="117.5" height="60" as="geometry" />
        </mxCell>
        <mxCell id="I3vFrrGUgCUFfB1d0GJX-87" value="" style="rounded=1;whiteSpace=wrap;html=1;fillColor=#d0cee2;strokeColor=#56517e;" parent="1" vertex="1">
          <mxGeometry x="1257.5" y="810" width="117.5" height="60" as="geometry" />
        </mxCell>
        <mxCell id="I3vFrrGUgCUFfB1d0GJX-88" value="" style="rounded=1;whiteSpace=wrap;html=1;arcSize=10;fillColor=#d0cee2;strokeColor=#56517e;" parent="1" vertex="1">
          <mxGeometry x="1025" y="840" width="350" height="200" as="geometry" />
        </mxCell>
        <mxCell id="I3vFrrGUgCUFfB1d0GJX-89" value="Resolved" style="text;html=1;align=center;verticalAlign=middle;whiteSpace=wrap;rounded=0;" parent="1" vertex="1">
          <mxGeometry x="1170" y="810" width="60" height="30" as="geometry" />
        </mxCell>
        <mxCell id="I3vFrrGUgCUFfB1d0GJX-90" value="Ignored" style="text;html=1;align=center;verticalAlign=middle;whiteSpace=wrap;rounded=0;" parent="1" vertex="1">
          <mxGeometry x="1286.25" y="810" width="60" height="30" as="geometry" />
        </mxCell>
        <mxCell id="I3vFrrGUgCUFfB1d0GJX-91" value="Issues" style="text;html=1;align=center;verticalAlign=middle;whiteSpace=wrap;rounded=0;" parent="1" vertex="1">
          <mxGeometry x="1052.5" y="810" width="60" height="30" as="geometry" />
        </mxCell>
        <mxCell id="I3vFrrGUgCUFfB1d0GJX-92" value="" style="rounded=0;whiteSpace=wrap;html=1;fillColor=#eeeeee;strokeColor=#36393d;" parent="1" vertex="1">
          <mxGeometry x="1028.75" y="855" width="342.5" height="170" as="geometry" />
        </mxCell>
        <mxCell id="I3vFrrGUgCUFfB1d0GJX-93" value="" style="rounded=0;whiteSpace=wrap;html=1;fillColor=#1ba1e2;strokeColor=#006EAF;fontColor=#ffffff;" parent="1" vertex="1">
          <mxGeometry x="1035" y="860" width="327.5" height="10" as="geometry" />
        </mxCell>
        <mxCell id="I3vFrrGUgCUFfB1d0GJX-95" value="Resolve" style="rounded=1;whiteSpace=wrap;html=1;fillColor=#d5e8d4;strokeColor=#82b366;" parent="1" vertex="1">
          <mxGeometry x="1265" y="880" width="50" height="20" as="geometry" />
        </mxCell>
        <mxCell id="I3vFrrGUgCUFfB1d0GJX-96" value="Issue" style="rounded=1;whiteSpace=wrap;html=1;fillColor=#f8cecc;strokeColor=#b85450;" parent="1" vertex="1">
          <mxGeometry x="1265" y="900" width="50" height="20" as="geometry" />
        </mxCell>
        <mxCell id="I3vFrrGUgCUFfB1d0GJX-97" value="View" style="rounded=1;whiteSpace=wrap;html=1;fillColor=#fad7ac;strokeColor=#b46504;" parent="1" vertex="1">
          <mxGeometry x="1315" y="880" width="47.5" height="40" as="geometry" />
        </mxCell>
        <mxCell id="I3vFrrGUgCUFfB1d0GJX-105" value="&lt;div style=&quot;font-size: 11px;&quot;&gt;&lt;font style=&quot;font-size: 11px;&quot;&gt;Issue: Internal route detected.&lt;/font&gt;&lt;/div&gt;&lt;div style=&quot;font-size: 11px;&quot;&gt;&lt;font style=&quot;font-size: 11px;&quot;&gt;Severity: 1&lt;/font&gt;&lt;/div&gt;" style="text;html=1;align=left;verticalAlign=middle;whiteSpace=wrap;rounded=0;" parent="1" vertex="1">
          <mxGeometry x="312.5" y="940" width="177.5" height="60" as="geometry" />
        </mxCell>
        <mxCell id="I3vFrrGUgCUFfB1d0GJX-106" value="&lt;div style=&quot;font-size: 11px;&quot;&gt;&lt;font style=&quot;font-size: 11px;&quot;&gt;Issue: Internal route detected.&lt;/font&gt;&lt;/div&gt;&lt;div style=&quot;font-size: 11px;&quot;&gt;&lt;font style=&quot;font-size: 11px;&quot;&gt;Severity: 1&lt;/font&gt;&lt;/div&gt;" style="text;html=1;align=left;verticalAlign=middle;whiteSpace=wrap;rounded=0;" parent="1" vertex="1">
          <mxGeometry x="1035" y="870" width="177.5" height="60" as="geometry" />
        </mxCell>
        <mxCell id="I3vFrrGUgCUFfB1d0GJX-138" value="" style="rounded=0;whiteSpace=wrap;html=1;" parent="1" vertex="1">
          <mxGeometry x="160" y="1140" width="640" height="360" as="geometry" />
        </mxCell>
        <mxCell id="I3vFrrGUgCUFfB1d0GJX-111" value="" style="rounded=1;whiteSpace=wrap;html=1;fillColor=#d0cee2;strokeColor=#56517e;" parent="1" vertex="1">
          <mxGeometry x="305" y="1230" width="350" height="210" as="geometry" />
        </mxCell>
        <mxCell id="I3vFrrGUgCUFfB1d0GJX-104" value="&lt;div style=&quot;font-size: 11px;&quot;&gt;&lt;font style=&quot;font-size: 11px;&quot;&gt;Issue: Internal route detected.&lt;/font&gt;&lt;/div&gt;&lt;div style=&quot;font-size: 11px;&quot;&gt;&lt;font style=&quot;font-size: 11px;&quot;&gt;Severity: 1&lt;/font&gt;&lt;/div&gt;&lt;div style=&quot;font-size: 11px;&quot;&gt;&lt;font style=&quot;font-size: 11px;&quot;&gt;Remediation: Ensure this is intended for private communication.&lt;/font&gt;&lt;/div&gt;" style="text;html=1;align=left;verticalAlign=middle;whiteSpace=wrap;rounded=0;" parent="1" vertex="1">
          <mxGeometry x="322.5" y="1260" width="307.5" height="60" as="geometry" />
        </mxCell>
        <mxCell id="I3vFrrGUgCUFfB1d0GJX-115" value="" style="rounded=0;whiteSpace=wrap;html=1;" parent="1" vertex="1">
          <mxGeometry x="327.5" y="1330" width="295" height="90" as="geometry" />
        </mxCell>
        <mxCell id="I3vFrrGUgCUFfB1d0GJX-116" value="" style="rounded=0;whiteSpace=wrap;html=1;" parent="1" vertex="1">
          <mxGeometry x="622.5" y="1330" width="10" height="90" as="geometry" />
        </mxCell>
        <mxCell id="I3vFrrGUgCUFfB1d0GJX-117" value="" style="rounded=1;whiteSpace=wrap;html=1;" parent="1" vertex="1">
          <mxGeometry x="622.5" y="1365" width="10" height="20" as="geometry" />
        </mxCell>
        <mxCell id="I3vFrrGUgCUFfB1d0GJX-118" value="v" style="rounded=0;whiteSpace=wrap;html=1;" parent="1" vertex="1">
          <mxGeometry x="622.5" y="1410" width="10" height="10" as="geometry" />
        </mxCell>
        <mxCell id="I3vFrrGUgCUFfB1d0GJX-119" value="^" style="rounded=0;whiteSpace=wrap;html=1;" parent="1" vertex="1">
          <mxGeometry x="622.5" y="1330" width="10" height="10" as="geometry" />
        </mxCell>
        <mxCell id="I3vFrrGUgCUFfB1d0GJX-125" value="&lt;font style=&quot;font-size: 10px;&quot;&gt;Resources Involved:&lt;/font&gt;" style="text;html=1;align=center;verticalAlign=middle;resizable=0;points=[];autosize=1;strokeColor=none;fillColor=none;" parent="1" vertex="1">
          <mxGeometry x="317.5" y="1310" width="110" height="30" as="geometry" />
        </mxCell>
        <mxCell id="I3vFrrGUgCUFfB1d0GJX-133" value="&amp;nbsp; Resource Name: default-sg&lt;br&gt;&amp;nbsp; Resource ID:&amp;nbsp;sg-0a0b7fc61fa4e3104" style="rounded=1;whiteSpace=wrap;html=1;align=left;" parent="1" vertex="1">
          <mxGeometry x="330" y="1330" width="290" height="60" as="geometry" />
        </mxCell>
        <mxCell id="I3vFrrGUgCUFfB1d0GJX-134" value="&amp;lt;Next Resource&amp;gt;" style="rounded=1;whiteSpace=wrap;html=1;" parent="1" vertex="1">
          <mxGeometry x="330" y="1390" width="290" height="30" as="geometry" />
        </mxCell>
        <mxCell id="I3vFrrGUgCUFfB1d0GJX-136" value="Details" style="rounded=1;whiteSpace=wrap;html=1;fillColor=#d5e8d4;strokeColor=#82b366;gradientColor=#97d077;" parent="1" vertex="1">
          <mxGeometry x="540" y="1340" width="70" height="40" as="geometry" />
        </mxCell>
        <mxCell id="I3vFrrGUgCUFfB1d0GJX-166" style="edgeStyle=orthogonalEdgeStyle;rounded=0;orthogonalLoop=1;jettySize=auto;html=1;entryX=0.75;entryY=1;entryDx=0;entryDy=0;" parent="1" source="I3vFrrGUgCUFfB1d0GJX-137" target="I3vFrrGUgCUFfB1d0GJX-44" edge="1">
          <mxGeometry relative="1" as="geometry" />
        </mxCell>
        <mxCell id="I3vFrrGUgCUFfB1d0GJX-137" value="Return to Report" style="rounded=1;whiteSpace=wrap;html=1;fillColor=#f8cecc;gradientColor=#ea6b66;strokeColor=#b85450;" parent="1" vertex="1">
          <mxGeometry x="580" y="1240" width="60" height="30" as="geometry" />
        </mxCell>
        <mxCell id="I3vFrrGUgCUFfB1d0GJX-140" value="&lt;font style=&quot;font-size: 18px;&quot;&gt;Issue Details&lt;br&gt;&lt;/font&gt;" style="text;html=1;align=center;verticalAlign=middle;whiteSpace=wrap;rounded=0;" parent="1" vertex="1">
          <mxGeometry x="390" y="1170" width="180" height="30" as="geometry" />
        </mxCell>
        <mxCell id="I3vFrrGUgCUFfB1d0GJX-141" value="Resource Details&lt;br&gt;&lt;br&gt;&lt;br&gt;&lt;br&gt;&lt;br&gt;&lt;br&gt;&lt;br&gt;&lt;br&gt;&lt;br&gt;&lt;br&gt;&lt;br&gt;&lt;div&gt;&lt;br/&gt;&lt;/div&gt;" style="rounded=1;whiteSpace=wrap;html=1;fillColor=#d0cee2;strokeColor=#56517e;" parent="1" vertex="1">
          <mxGeometry x="290" y="1590" width="350" height="210" as="geometry" />
        </mxCell>
        <mxCell id="I3vFrrGUgCUFfB1d0GJX-142" style="edgeStyle=orthogonalEdgeStyle;rounded=0;orthogonalLoop=1;jettySize=auto;html=1;entryX=0.519;entryY=-0.004;entryDx=0;entryDy=0;entryPerimeter=0;" parent="1" source="I3vFrrGUgCUFfB1d0GJX-136" target="I3vFrrGUgCUFfB1d0GJX-141" edge="1">
          <mxGeometry relative="1" as="geometry" />
        </mxCell>
        <mxCell id="I3vFrrGUgCUFfB1d0GJX-143" value="Pop-up" style="text;html=1;align=center;verticalAlign=middle;resizable=0;points=[];autosize=1;strokeColor=none;fillColor=none;" parent="1" vertex="1">
          <mxGeometry x="330" y="1558" width="60" height="30" as="geometry" />
        </mxCell>
        <mxCell id="I3vFrrGUgCUFfB1d0GJX-150" style="edgeStyle=orthogonalEdgeStyle;rounded=0;orthogonalLoop=1;jettySize=auto;html=1;entryX=1;entryY=0.5;entryDx=0;entryDy=0;" parent="1" source="I3vFrrGUgCUFfB1d0GJX-148" target="I3vFrrGUgCUFfB1d0GJX-1" edge="1">
          <mxGeometry relative="1" as="geometry" />
        </mxCell>
        <mxCell id="I3vFrrGUgCUFfB1d0GJX-148" value="Return to Report List" style="rounded=1;whiteSpace=wrap;html=1;fillColor=#f8cecc;gradientColor=#ea6b66;strokeColor=#b85450;" parent="1" vertex="1">
          <mxGeometry x="710" y="740" width="70" height="30" as="geometry" />
        </mxCell>
        <mxCell id="I3vFrrGUgCUFfB1d0GJX-158" value="&lt;div style=&quot;border-color: var(--border-color); color: rgb(0, 0, 0); font-family: Helvetica; font-size: 12px; font-style: normal; font-variant-ligatures: normal; font-variant-caps: normal; font-weight: 400; letter-spacing: normal; orphans: 2; text-indent: 0px; text-transform: none; widows: 2; word-spacing: 0px; -webkit-text-stroke-width: 0px; background-color: rgb(251, 251, 251); text-decoration-thickness: initial; text-decoration-style: initial; text-decoration-color: initial;&quot;&gt;&lt;div style=&quot;border-color: var(--border-color);&quot;&gt;Security Group ID: sg-0a0b7fc61fa4e3104&lt;/div&gt;&lt;/div&gt;&lt;div style=&quot;border-color: var(--border-color); color: rgb(0, 0, 0); font-family: Helvetica; font-size: 12px; font-style: normal; font-variant-ligatures: normal; font-variant-caps: normal; font-weight: 400; letter-spacing: normal; orphans: 2; text-indent: 0px; text-transform: none; widows: 2; word-spacing: 0px; -webkit-text-stroke-width: 0px; background-color: rgb(251, 251, 251); text-decoration-thickness: initial; text-decoration-style: initial; text-decoration-color: initial;&quot;&gt;&lt;div style=&quot;border-color: var(--border-color);&quot;&gt;Security Group Name: default&lt;/div&gt;&lt;/div&gt;&lt;div style=&quot;border-color: var(--border-color); color: rgb(0, 0, 0); font-family: Helvetica; font-size: 12px; font-style: normal; font-variant-ligatures: normal; font-variant-caps: normal; font-weight: 400; letter-spacing: normal; orphans: 2; text-indent: 0px; text-transform: none; widows: 2; word-spacing: 0px; -webkit-text-stroke-width: 0px; background-color: rgb(251, 251, 251); text-decoration-thickness: initial; text-decoration-style: initial; text-decoration-color: initial;&quot;&gt;&lt;div style=&quot;border-color: var(--border-color);&quot;&gt;Description: default VPC security group&lt;/div&gt;&lt;/div&gt;&lt;div style=&quot;border-color: var(--border-color); color: rgb(0, 0, 0); font-family: Helvetica; font-size: 12px; font-style: normal; font-variant-ligatures: normal; font-variant-caps: normal; font-weight: 400; letter-spacing: normal; orphans: 2; text-indent: 0px; text-transform: none; widows: 2; word-spacing: 0px; -webkit-text-stroke-width: 0px; background-color: rgb(251, 251, 251); text-decoration-thickness: initial; text-decoration-style: initial; text-decoration-color: initial;&quot;&gt;&lt;div style=&quot;border-color: var(--border-color);&quot;&gt;VPC ID: vpc-0d226802a5d966b4a&lt;/div&gt;&lt;/div&gt;&lt;div style=&quot;border-color: var(--border-color); color: rgb(0, 0, 0); font-family: Helvetica; font-size: 12px; font-style: normal; font-variant-ligatures: normal; font-variant-caps: normal; font-weight: 400; letter-spacing: normal; orphans: 2; text-indent: 0px; text-transform: none; widows: 2; word-spacing: 0px; -webkit-text-stroke-width: 0px; background-color: rgb(251, 251, 251); text-decoration-thickness: initial; text-decoration-style: initial; text-decoration-color: initial;&quot;&gt;&lt;div style=&quot;border-color: var(--border-color);&quot;&gt;Ingress Rules:&lt;/div&gt;&lt;/div&gt;&lt;div style=&quot;border-color: var(--border-color); color: rgb(0, 0, 0); font-family: Helvetica; font-size: 12px; font-style: normal; font-variant-ligatures: normal; font-variant-caps: normal; font-weight: 400; letter-spacing: normal; orphans: 2; text-indent: 0px; text-transform: none; widows: 2; word-spacing: 0px; -webkit-text-stroke-width: 0px; background-color: rgb(251, 251, 251); text-decoration-thickness: initial; text-decoration-style: initial; text-decoration-color: initial;&quot;&gt;&lt;div style=&quot;border-color: var(--border-color);&quot;&gt;&amp;nbsp; {&#39;IpProtocol&#39;: &#39;-1&#39;, &#39;IpRanges&#39;: [], &#39;Ipv6Ranges&#39;: [], &#39;PrefixListIds&#39;: [], &#39;UserIdGroupPairs&#39;: [{&#39;GroupId&#39;: &#39;sg-0a0b7fc61fa4e3104&#39;, &#39;UserId&#39;: &#39;356863551146&#39;}]}&lt;/div&gt;&lt;/div&gt;&lt;div style=&quot;border-color: var(--border-color); color: rgb(0, 0, 0); font-family: Helvetica; font-size: 12px; font-style: normal; font-variant-ligatures: normal; font-variant-caps: normal; font-weight: 400; letter-spacing: normal; orphans: 2; text-indent: 0px; text-transform: none; widows: 2; word-spacing: 0px; -webkit-text-stroke-width: 0px; background-color: rgb(251, 251, 251); text-decoration-thickness: initial; text-decoration-style: initial; text-decoration-color: initial;&quot;&gt;&lt;div style=&quot;border-color: var(--border-color);&quot;&gt;Egress Rules:&lt;/div&gt;&lt;/div&gt;" style="rounded=0;whiteSpace=wrap;html=1;align=left;" parent="1" vertex="1">
          <mxGeometry x="310" y="1640" width="295" height="140" as="geometry" />
        </mxCell>
        <mxCell id="I3vFrrGUgCUFfB1d0GJX-159" value="" style="rounded=0;whiteSpace=wrap;html=1;" parent="1" vertex="1">
          <mxGeometry x="605" y="1640" width="10" height="140" as="geometry" />
        </mxCell>
        <mxCell id="I3vFrrGUgCUFfB1d0GJX-160" value="" style="rounded=1;whiteSpace=wrap;html=1;" parent="1" vertex="1">
          <mxGeometry x="605" y="1675" width="10" height="20" as="geometry" />
        </mxCell>
        <mxCell id="I3vFrrGUgCUFfB1d0GJX-161" value="v" style="rounded=0;whiteSpace=wrap;html=1;" parent="1" vertex="1">
          <mxGeometry x="600" y="1770" width="10" height="10" as="geometry" />
        </mxCell>
        <mxCell id="I3vFrrGUgCUFfB1d0GJX-162" value="^" style="rounded=0;whiteSpace=wrap;html=1;" parent="1" vertex="1">
          <mxGeometry x="605" y="1640" width="10" height="10" as="geometry" />
        </mxCell>
        <mxCell id="I3vFrrGUgCUFfB1d0GJX-168" style="edgeStyle=orthogonalEdgeStyle;rounded=0;orthogonalLoop=1;jettySize=auto;html=1;entryX=1;entryY=0.5;entryDx=0;entryDy=0;" parent="1" source="I3vFrrGUgCUFfB1d0GJX-163" target="I3vFrrGUgCUFfB1d0GJX-138" edge="1">
          <mxGeometry relative="1" as="geometry" />
        </mxCell>
        <mxCell id="I3vFrrGUgCUFfB1d0GJX-163" value="" style="shape=sumEllipse;perimeter=ellipsePerimeter;html=1;backgroundOutline=1;fillColor=#f8cecc;gradientColor=#ea6b66;strokeColor=#b85450;" parent="1" vertex="1">
          <mxGeometry x="610" y="1600" width="20" height="20" as="geometry" />
        </mxCell>
      </root>
    </mxGraphModel>
  </diagram>
</mxfile>
